<?xml version="1.0" encoding="UTF-8"?><svg xmlns="http://www.w3.org/2000/svg" xmlns:xlink="http://www.w3.org/1999/xlink" contentScriptType="text/ecmascript" fill="#000000" width="485.9" zoomAndPan="magnify" contentStyleType="text/css" viewBox="0.0 -7.8 485.9 338.4" height="338.4" preserveAspectRatio="xMidYMid meet" version="1"><defs><clipPath id="a"><path d="M 0 62 L 485.890625 62 L 485.890625 324 L 0 324 Z M 0 62"/></clipPath><clipPath id="b"><path d="M 187 24 L 449 24 L 449 330.628906 L 187 330.628906 Z M 187 24"/></clipPath></defs><g><g id="change1_1"><path fill="#f8f5ea" d="M 241.398438 110.902344 C 243.539062 114.109375 246.847656 115.199219 252.089844 116.246094 C 257.4375 117.316406 267.058594 114.109375 271.335938 108.765625 C 275.609375 103.417969 270.265625 99.140625 265.988281 103.417969 C 261.714844 107.695312 252.914062 109.75 246.746094 107.695312 C 243.539062 106.625 239.261719 107.695312 241.398438 110.902344 Z M 15.128906 278.78125 C 15.128906 278.78125 2.667969 277.597656 2.667969 289.460938 C 2.667969 301.328125 12.460938 302.8125 12.460938 302.8125 L 93.738281 302.8125 C 93.738281 302.8125 92.253906 297.769531 92.253906 291.835938 C 92.253906 285.902344 94.628906 279.375 94.628906 279.375 Z M 15.128906 249.117188 C 15.128906 249.117188 2.667969 247.933594 2.667969 259.796875 C 2.667969 271.664062 12.460938 273.144531 12.460938 273.144531 L 93.738281 273.144531 C 93.738281 273.144531 92.253906 268.101562 92.253906 262.171875 C 92.253906 256.238281 94.628906 249.710938 94.628906 249.710938 Z M 217.140625 135.804688 L 229.003906 128.683594 L 281.214844 129.871094 L 297.824219 142.921875 L 252.734375 281.75 L 234.9375 254.457031 L 217.140625 135.804688"/></g><g id="change2_1"><path fill="#2ca9bf" d="M 97.59375 274.035156 C 97.59375 273.054688 96.796875 272.257812 95.8125 272.257812 L 16.316406 272.257812 C 7.914062 272.257812 4.152344 266.894531 4.152344 261.578125 C 4.152344 256.269531 7.921875 250.898438 15.128906 250.898438 L 97 250.898438 C 97.984375 250.898438 98.78125 250.101562 98.78125 249.117188 C 98.78125 248.136719 97.984375 247.339844 97 247.339844 L 15.128906 247.339844 C 5.585938 247.339844 0.59375 254.503906 0.59375 261.578125 C 0.59375 268.4375 5.511719 275.816406 16.316406 275.816406 L 95.8125 275.816406 C 96.796875 275.816406 97.59375 275.019531 97.59375 274.035156 Z M 456.230469 276.410156 L 467.585938 183.351562 C 467.863281 181.027344 470.003906 179.386719 472.320312 179.71875 C 474.582031 180.039062 476.164062 182.121094 475.871094 184.386719 L 463.347656 277.597656 L 458.601562 283.527344 L 456.230469 276.410156"/></g><g id="change3_1" clip-path="url(#a)"><path fill="#2e3859" d="M 232.648438 78.617188 C 232.648438 81.605469 234.105469 84.03125 235.898438 84.03125 C 237.691406 84.03125 239.148438 81.605469 239.148438 78.617188 C 239.148438 75.625 237.691406 73.203125 235.898438 73.203125 C 234.105469 73.203125 232.648438 75.625 232.648438 78.617188 Z M 247.007812 101.25 C 247.59375 101.75 248.367188 101.957031 249.300781 101.957031 C 251.195312 101.957031 253.746094 101.097656 256.714844 100.101562 L 257.742188 99.753906 L 257.367188 98.628906 L 256.339844 98.976562 C 252.589844 100.234375 249.050781 101.429688 247.777344 100.347656 C 247.195312 99.851562 247.039062 98.765625 247.3125 97.125 C 248.375 90.761719 251.582031 82.160156 251.613281 82.074219 L 250.503906 81.65625 C 250.46875 81.742188 247.222656 90.449219 246.140625 96.929688 C 245.789062 99.039062 246.074219 100.453125 247.007812 101.25 Z M 245.28125 68.257812 L 246.007812 67.320312 C 235.988281 59.523438 225.859375 68.335938 225.757812 68.425781 L 226.546875 69.3125 C 226.929688 68.972656 236.046875 61.074219 245.28125 68.257812 Z M 264.054688 78.617188 C 264.054688 81.605469 265.507812 84.03125 267.304688 84.03125 C 269.097656 84.03125 270.550781 81.605469 270.550781 78.617188 C 270.550781 75.625 269.097656 73.203125 267.304688 73.203125 C 265.507812 73.203125 264.054688 75.625 264.054688 78.617188 Z M 277.667969 69.242188 L 278.597656 68.5 C 269.664062 57.335938 258.382812 66.152344 258.269531 66.242188 L 259.011719 67.167969 C 259.433594 66.828125 269.46875 58.992188 277.667969 69.242188 Z M 272.683594 300.863281 C 272.425781 300.660156 272.054688 300.703125 271.847656 300.957031 C 271.644531 301.214844 271.6875 301.589844 271.945312 301.792969 L 286.183594 313.0625 C 286.292969 313.152344 286.421875 313.191406 286.550781 313.191406 C 286.726562 313.191406 286.898438 313.113281 287.015625 312.96875 C 287.222656 312.710938 287.179688 312.335938 286.921875 312.136719 Z M 266.757812 305.613281 C 266.503906 305.40625 266.128906 305.445312 265.921875 305.699219 C 265.714844 305.953125 265.75 306.324219 266.003906 306.53125 L 279.058594 317.210938 C 279.167969 317.300781 279.300781 317.347656 279.433594 317.347656 C 279.605469 317.347656 279.773438 317.269531 279.890625 317.128906 C 280.097656 316.875 280.0625 316.5 279.808594 316.292969 Z M 262.011719 311.546875 C 261.757812 311.339844 261.382812 311.375 261.175781 311.632812 C 260.96875 311.886719 261.003906 312.257812 261.257812 312.464844 L 274.3125 323.144531 C 274.421875 323.234375 274.554688 323.277344 274.6875 323.277344 C 274.859375 323.277344 275.027344 323.203125 275.144531 323.0625 C 275.351562 322.808594 275.316406 322.433594 275.0625 322.226562 Z M 351.21875 288.867188 C 339.355469 288.867188 323.929688 259.203125 323.929688 259.203125 L 317.996094 288.867188 Z M 166.117188 254.457031 L 187.476562 261.578125 L 179.167969 230.726562 Z M 485.894531 288.867188 L 485.894531 292.429688 L 232.746094 292.429688 L 215.953125 319.71875 C 215.953125 319.71875 155.4375 310.226562 128.148438 304.292969 C 117.722656 302.027344 110.597656 298.023438 106.554688 292.429688 L 91.363281 292.429688 L 91.363281 288.867188 L 104.496094 288.867188 C 100.511719 280.035156 102.640625 268.046875 110.347656 253.273438 C 124.589844 225.980469 132.894531 211.742188 149.507812 183.265625 C 166.117188 154.789062 176.796875 145.296875 193.40625 139.363281 C 210.019531 133.429688 220.699219 131.058594 220.699219 131.058594 L 251.550781 274.628906 L 289.519531 132.242188 C 289.519531 132.242188 295.453125 134.617188 314.4375 144.109375 C 333.421875 153.601562 340.539062 164.28125 350.03125 182.078125 C 359.523438 199.878906 363.085938 206.996094 363.085938 206.996094 L 377.59375 138.597656 C 378.761719 133.085938 384.117188 129.519531 389.652344 130.566406 L 413.734375 135.125 C 419.238281 136.164062 422.917969 141.394531 422.035156 146.929688 C 418.546875 168.882812 409.90625 221.691406 403.425781 248.527344 C 395.121094 282.9375 384.441406 288.867188 384.441406 288.867188 Z M 95.21875 300.734375 L 15.722656 300.734375 C 7.320312 300.734375 3.558594 295.371094 3.558594 290.054688 C 3.558594 284.746094 7.328125 279.375 14.535156 279.375 L 96.40625 279.375 C 97.390625 279.375 98.1875 278.578125 98.1875 277.597656 C 98.1875 276.613281 97.390625 275.816406 96.40625 275.816406 L 14.535156 275.816406 C 4.992188 275.816406 0 282.980469 0 290.054688 C 0 296.914062 4.917969 304.292969 15.722656 304.292969 L 95.21875 304.292969 C 96.203125 304.292969 97 303.496094 97 302.515625 C 97 301.53125 96.203125 300.734375 95.21875 300.734375 Z M 416.003906 202.207031 C 413.726562 202.765625 412.359375 205.085938 412.96875 207.347656 L 431.851562 278.316406 L 436.710938 284.03125 L 438.898438 276.757812 L 421.039062 205.210938 C 420.464844 203 418.222656 201.660156 416.003906 202.207031 Z M 255.109375 189.792969 C 255.109375 188.8125 254.308594 188.011719 253.328125 188.011719 C 252.347656 188.011719 251.550781 188.8125 251.550781 189.792969 C 251.550781 190.773438 252.347656 191.570312 253.328125 191.570312 C 254.308594 191.570312 255.109375 190.773438 255.109375 189.792969 Z M 253.328125 192.757812 C 251.691406 192.757812 250.363281 191.429688 250.363281 189.792969 C 250.363281 188.15625 251.691406 186.824219 253.328125 186.824219 C 254.964844 186.824219 256.296875 188.15625 256.296875 189.792969 C 256.296875 191.429688 254.964844 192.757812 253.328125 192.757812 Z M 252.140625 218.863281 C 251.160156 218.863281 250.363281 219.660156 250.363281 220.640625 C 250.363281 221.621094 251.160156 222.421875 252.140625 222.421875 C 253.121094 222.421875 253.921875 221.621094 253.921875 220.640625 C 253.921875 219.660156 253.121094 218.863281 252.140625 218.863281 Z M 252.140625 217.675781 C 253.777344 217.675781 255.109375 219.007812 255.109375 220.640625 C 255.109375 222.277344 253.777344 223.609375 252.140625 223.609375 C 250.507812 223.609375 249.175781 222.277344 249.175781 220.640625 C 249.175781 219.007812 250.507812 217.675781 252.140625 217.675781 Z M 256.296875 160.128906 C 256.296875 159.144531 255.496094 158.347656 254.515625 158.347656 C 253.535156 158.347656 252.734375 159.144531 252.734375 160.128906 C 252.734375 161.109375 253.535156 161.90625 254.515625 161.90625 C 255.496094 161.90625 256.296875 161.109375 256.296875 160.128906 Z M 254.515625 163.09375 C 252.878906 163.09375 251.550781 161.765625 251.550781 160.128906 C 251.550781 158.492188 252.878906 157.160156 254.515625 157.160156 C 256.152344 157.160156 257.480469 158.492188 257.480469 160.128906 C 257.480469 161.765625 256.152344 163.09375 254.515625 163.09375 Z M 230.253906 146.152344 L 223.132812 131.914062 L 224.195312 131.386719 L 231.316406 145.625 C 232.511719 148.015625 234.039062 149.285156 235.855469 149.398438 C 238.332031 149.550781 240.851562 147.515625 242.15625 145.5625 C 244.515625 142.019531 249.257812 136.085938 249.304688 136.027344 L 249.457031 135.839844 L 259.605469 134.570312 L 259.792969 134.945312 C 259.828125 135.015625 263.382812 142.113281 266.890625 147.957031 C 269.996094 153.136719 272.992188 152.695312 276.550781 146.769531 C 280.066406 140.910156 284.804688 132.625 284.851562 132.542969 L 285.882812 133.132812 C 285.832031 133.214844 281.089844 141.511719 277.570312 147.382812 C 275.398438 150.996094 273.3125 152.757812 271.191406 152.757812 C 269.304688 152.757812 267.5625 151.386719 265.871094 148.566406 C 262.804688 143.457031 259.703125 137.402344 258.917969 135.851562 L 250.082031 136.953125 C 249.257812 137.992188 245.238281 143.074219 243.144531 146.21875 C 241.605469 148.523438 238.722656 150.765625 235.78125 150.582031 C 234.222656 150.484375 231.996094 149.636719 230.253906 146.152344"/></g><g id="change4_1"><path fill="#828282" d="M 472.246094 245.746094 C 472.246094 243.355469 470.300781 241.40625 467.910156 241.40625 L 459.96875 241.40625 L 451.179688 281.839844 C 450.707031 284.011719 448.460938 285.289062 446.355469 284.585938 C 444.546875 283.984375 443.484375 282.117188 443.886719 280.257812 L 452.320312 241.40625 L 420.816406 241.40625 C 418.425781 241.40625 416.480469 243.355469 416.480469 245.746094 L 416.480469 282.15625 C 416.480469 284.550781 418.425781 286.496094 420.816406 286.496094 L 467.910156 286.496094 C 470.300781 286.496094 472.246094 284.550781 472.246094 282.15625 Z M 474.621094 245.746094 L 474.621094 282.15625 C 474.621094 285.859375 471.609375 288.867188 467.910156 288.867188 L 420.816406 288.867188 C 417.117188 288.867188 414.105469 285.859375 414.105469 282.15625 L 414.105469 245.746094 C 414.105469 242.042969 417.117188 239.03125 420.816406 239.03125 L 452.835938 239.03125 L 460.261719 204.8125 C 460.734375 202.730469 461.613281 200.761719 462.855469 199.027344 L 465.8125 194.882812 C 466.199219 194.347656 467.042969 194.566406 467.117188 195.222656 L 467.804688 201.410156 C 467.996094 203.144531 467.90625 204.898438 467.53125 206.605469 L 460.484375 239.03125 L 467.910156 239.03125 C 471.609375 239.03125 474.621094 242.042969 474.621094 245.746094 Z M 306.128906 91.902344 C 306.128906 91.902344 299.011719 112.070312 290.703125 122.75 C 288.210938 125.960938 285.390625 128.621094 282.382812 130.789062 L 288.601562 135.675781 C 289.089844 133.855469 291.085938 132.902344 292.800781 133.679688 C 293.914062 134.179688 295.339844 134.835938 297.128906 135.675781 C 304.539062 132.785156 314.617188 127.054688 316.808594 116.820312 C 319.046875 106.378906 316.597656 95.472656 314.46875 88.804688 C 310.296875 91.253906 306.128906 91.902344 306.128906 91.902344 Z M 218.386719 131.617188 C 219.652344 131.296875 220.921875 132.09375 221.195312 133.371094 L 227.273438 129.722656 C 224.804688 127.84375 222.566406 125.554688 220.699219 122.75 C 211.207031 108.511719 207.644531 93.085938 207.644531 93.085938 C 207.644531 93.085938 200.320312 94.308594 194.425781 89.742188 C 192.519531 92.980469 190.015625 98.195312 188.660156 104.953125 C 186.597656 115.277344 189.03125 128.296875 207.683594 134.632812 C 212.527344 133.152344 216.199219 132.171875 218.386719 131.617188 Z M 178.082031 232.179688 L 179.070312 232.835938 L 183.816406 225.71875 L 182.828125 225.058594 Z M 302.570312 201.65625 C 302.570312 210.292969 294.539062 213.214844 291.964844 213.933594 C 288.144531 208.726562 283.535156 202.582031 283.46875 202.488281 L 282.519531 203.199219 C 282.589844 203.296875 287.511719 209.859375 291.386719 215.148438 L 291.414062 215.289062 C 291.417969 215.289062 291.445312 215.285156 291.480469 215.277344 C 293.265625 217.714844 294.816406 219.867188 295.550781 220.972656 C 297.691406 224.179688 294.28125 228.683594 288.507812 234.460938 C 282.644531 240.320312 253.214844 268.578125 252.917969 268.863281 L 253.742188 269.71875 C 254.035156 269.433594 283.476562 241.167969 289.34375 235.300781 C 295.535156 229.109375 299.125 224.191406 296.539062 220.3125 C 295.832031 219.253906 294.382812 217.238281 292.699219 214.9375 C 295.859375 213.933594 303.757812 210.53125 303.757812 201.65625 C 303.757812 191.113281 306.105469 140.789062 306.128906 140.28125 L 304.945312 140.226562 C 304.921875 140.734375 302.570312 191.085938 302.570312 201.65625 Z M 355.972656 239.527344 L 357.144531 239.726562 L 363.078125 205.316406 L 361.90625 205.117188 Z M 323.929688 259.746094 L 325.113281 259.851562 L 331.046875 194.589844 L 329.863281 194.484375 Z M 210.941406 218.761719 C 214.511719 216.382812 224.832031 206.074219 225.269531 205.636719 L 224.433594 204.796875 C 224.371094 204.855469 221.15625 208.066406 217.695312 211.332031 L 217.847656 210.566406 L 211.941406 209.386719 C 211.523438 209.28125 211.109375 209.1875 210.710938 209.09375 C 206.6875 208.15625 204.261719 207.589844 205.265625 200.554688 C 206.445312 192.3125 208.167969 137.554688 208.238281 135.230469 L 207.054688 135.191406 C 207.035156 135.761719 205.261719 192.207031 204.09375 200.386719 C 202.933594 208.496094 206.246094 209.269531 210.441406 210.246094 C 210.835938 210.339844 211.242188 210.433594 211.683594 210.546875 L 217.332031 211.675781 C 214.601562 214.242188 211.78125 216.777344 210.285156 217.773438 C 207.003906 219.964844 207.71875 224.882812 212.476562 232.8125 C 216.03125 238.734375 249.121094 272.992188 250.53125 274.449219 L 251.382812 273.625 C 251.039062 273.269531 216.980469 238.007812 213.492188 232.203125 C 209.128906 224.925781 208.292969 220.527344 210.941406 218.761719 Z M 198.152344 59.863281 C 198.152344 59.863281 197.667969 60.109375 196.910156 60.589844 C 196.996094 38.640625 211.203125 13.144531 238.496094 2.910156 C 266.972656 -7.769531 306.128906 12.402344 313.25 39.691406 C 315.289062 47.507812 316.058594 54.34375 316.125 60.128906 C 315.820312 59.953125 315.621094 59.863281 315.621094 59.863281 L 312.0625 72.914062 C 312.0625 72.914062 295.453125 74.101562 277.652344 61.050781 C 259.855469 47.996094 256.296875 24.265625 256.296875 24.265625 C 256.296875 24.265625 243.242188 44.4375 232.5625 55.117188 C 221.886719 65.796875 200.527344 68.171875 200.527344 68.171875 L 198.152344 59.863281"/></g><g id="change5_1" clip-path="url(#b)"><path fill="#fdaf7d" d="M 294.265625 313.785156 C 292.996094 315.6875 289.703125 314.539062 286.902344 313.058594 C 286.941406 313.027344 286.984375 313.007812 287.015625 312.96875 C 287.222656 312.710938 287.179688 312.335938 286.921875 312.136719 L 272.683594 300.863281 C 272.425781 300.660156 272.054688 300.703125 271.847656 300.957031 C 271.644531 301.214844 271.6875 301.589844 271.945312 301.792969 L 283.996094 311.332031 C 283.824219 311.21875 283.667969 311.113281 283.519531 311.015625 C 286.15625 312.929688 292.355469 317.828125 289.519531 319.71875 C 287.003906 321.394531 282.128906 318.929688 279.480469 317.335938 C 279.632812 317.324219 279.785156 317.257812 279.890625 317.128906 C 280.097656 316.875 280.0625 316.5 279.808594 316.292969 L 266.757812 305.613281 C 266.503906 305.40625 266.128906 305.445312 265.921875 305.699219 C 265.714844 305.953125 265.75 306.324219 266.003906 306.53125 L 278.332031 316.617188 C 277.910156 316.34375 277.652344 316.160156 277.652344 316.160156 C 277.652344 316.160156 287.144531 323.277344 283.585938 325.652344 C 281.441406 327.078125 277.585938 325.070312 274.851562 323.242188 C 274.960938 323.210938 275.066406 323.15625 275.144531 323.0625 C 275.351562 322.808594 275.316406 322.433594 275.0625 322.226562 L 262.011719 311.546875 C 261.757812 311.339844 261.382812 311.375 261.175781 311.632812 C 260.96875 311.886719 261.003906 312.257812 261.257812 312.464844 L 274.3125 323.144531 C 274.367188 323.191406 274.429688 323.222656 274.496094 323.246094 C 276.972656 325.539062 279.890625 328.90625 277.652344 330.398438 C 274.09375 332.769531 252.734375 316.160156 252.734375 316.160156 C 252.734375 316.160156 246.804688 320.90625 232.5625 322.09375 C 218.324219 323.277344 218.324219 314.972656 218.324219 314.972656 L 229.003906 295.988281 C 229.003906 295.988281 256.296875 293.613281 261.039062 293.613281 C 265.785156 293.613281 269.347656 295.988281 269.347656 295.988281 C 269.347656 295.988281 278.839844 295.988281 282.398438 298.359375 C 285.960938 300.734375 282.398438 303.105469 282.398438 303.105469 C 282.398438 303.105469 296.636719 310.226562 294.265625 313.785156 Z M 389.1875 131.058594 C 389.1875 131.058594 383.257812 116.820312 389.1875 102.578125 C 395.121094 88.339844 396.308594 84.78125 399.867188 85.96875 C 403.425781 87.15625 401.054688 99.019531 401.054688 99.019531 C 401.054688 99.019531 408.175781 85.96875 418.851562 77.660156 C 429.53125 69.355469 433.089844 69.355469 434.277344 71.730469 C 435.464844 74.101562 421.226562 88.339844 421.226562 88.339844 C 421.226562 88.339844 440.210938 76.476562 442.582031 78.847656 C 444.957031 81.222656 427.160156 95.460938 427.160156 95.460938 C 427.160156 95.460938 446.144531 82.410156 448.515625 85.96875 C 450.890625 89.527344 433.089844 102.578125 433.089844 102.578125 C 433.089844 102.578125 443.769531 95.460938 446.144531 97.835938 C 448.515625 100.207031 415.09375 136 415.09375 136 Z M 277.667969 69.242188 C 269.46875 58.992188 259.433594 66.828125 259.011719 67.167969 L 258.269531 66.242188 C 258.382812 66.152344 269.664062 57.335938 278.597656 68.5 Z M 264.054688 78.617188 C 264.054688 75.625 265.507812 73.203125 267.304688 73.203125 C 269.097656 73.203125 270.550781 75.625 270.550781 78.617188 C 270.550781 81.605469 269.097656 84.03125 267.304688 84.03125 C 265.507812 84.03125 264.054688 81.605469 264.054688 78.617188 Z M 271.335938 108.765625 C 267.058594 114.109375 257.4375 117.316406 252.089844 116.246094 C 246.847656 115.199219 243.539062 114.109375 241.398438 110.902344 C 239.261719 107.695312 243.539062 106.625 246.746094 107.695312 C 252.914062 109.75 261.714844 107.695312 265.988281 103.417969 C 270.265625 99.140625 275.609375 103.417969 271.335938 108.765625 Z M 235.898438 84.03125 C 234.105469 84.03125 232.648438 81.605469 232.648438 78.617188 C 232.648438 75.625 234.105469 73.203125 235.898438 73.203125 C 237.691406 73.203125 239.148438 75.625 239.148438 78.617188 C 239.148438 81.605469 237.691406 84.03125 235.898438 84.03125 Z M 225.757812 68.425781 C 225.859375 68.335938 235.988281 59.523438 246.007812 67.320312 L 245.28125 68.257812 C 236.046875 61.074219 226.929688 68.972656 226.546875 69.3125 Z M 250.503906 81.65625 L 251.613281 82.074219 C 251.582031 82.160156 248.375 90.761719 247.3125 97.125 C 247.039062 98.765625 247.195312 99.851562 247.777344 100.347656 C 249.050781 101.429688 252.589844 100.234375 256.339844 98.976562 L 257.367188 98.628906 L 257.742188 99.753906 L 256.714844 100.101562 C 253.746094 101.097656 251.195312 101.957031 249.300781 101.957031 C 248.367188 101.957031 247.59375 101.75 247.007812 101.25 C 246.074219 100.453125 245.789062 99.039062 246.140625 96.929688 C 247.222656 90.449219 250.46875 81.742188 250.503906 81.65625 Z M 315.621094 59.863281 L 312.0625 72.914062 C 312.0625 72.914062 295.453125 74.101562 277.652344 61.050781 C 259.855469 47.996094 256.296875 24.265625 256.296875 24.265625 C 256.296875 24.265625 243.242188 44.4375 232.5625 55.117188 C 221.886719 65.796875 200.527344 68.171875 200.527344 68.171875 L 198.152344 59.863281 C 198.152344 59.863281 183.914062 66.984375 188.660156 81.222656 C 193.40625 95.460938 207.644531 93.085938 207.644531 93.085938 C 207.644531 93.085938 211.207031 108.511719 220.699219 122.75 C 230.191406 136.988281 249.175781 138.175781 259.855469 138.175781 C 270.535156 138.175781 282.398438 133.429688 290.703125 122.75 C 299.011719 112.070312 306.128906 91.902344 306.128906 91.902344 C 306.128906 91.902344 321.554688 89.527344 322.742188 76.476562 C 323.929688 63.425781 315.621094 59.863281 315.621094 59.863281"/></g></g></svg>