<?xml version="1.0" encoding="UTF-8"?><svg xmlns="http://www.w3.org/2000/svg" xmlns:xlink="http://www.w3.org/1999/xlink" contentScriptType="text/ecmascript" fill="#000000" width="203.8" zoomAndPan="magnify" contentStyleType="text/css" viewBox="0.0 0.0 203.8 489.0" height="489" preserveAspectRatio="xMidYMid meet" version="1"><defs><clipPath id="a"><path d="M 118 456 L 142 456 L 142 488.988281 L 118 488.988281 Z M 118 456"/></clipPath><clipPath id="b"><path d="M 16 0 L 203.789062 0 L 203.789062 255 L 16 255 Z M 16 0"/></clipPath></defs><g><g id="change1_1" clip-path="url(#a)"><path fill="#2e3859" d="M 141.332031 456.984375 C 141.332031 456.984375 142.171875 467.191406 138.800781 474.195312 C 135.429688 481.199219 128.683594 489.242188 123.492188 488.984375 C 118.304688 488.722656 117.527344 484.574219 118.824219 479.382812 C 120.121094 474.195312 122.457031 471.082031 122.714844 466.410156 C 122.976562 461.742188 122.886719 456.640625 122.886719 456.640625 L 141.332031 456.984375"/></g><g id="change1_2"><path fill="#2e3859" d="M 120 454.566406 L 103.417969 454.910156 C 103.417969 454.910156 102.738281 459.925781 99.886719 461.222656 C 97.03125 462.519531 81.984375 464.855469 79.128906 467.710938 C 76.277344 470.5625 78.089844 474.972656 83.539062 474.972656 C 88.988281 474.972656 100.921875 474.972656 110.003906 474.972656 C 119.082031 474.972656 122.941406 472.035156 120 454.566406"/></g><g id="change1_4" clip-path="url(#b)"><path fill="#2e3859" d="M 174.34375 3.050781 C 149.4375 -5.769531 129.71875 6.164062 128.683594 18.101562 C 127.644531 30.035156 114.671875 35.222656 105.332031 46.636719 C 102.382812 50.242188 101.246094 57.363281 102.378906 65.519531 C 90.292969 83.773438 76.03125 105.535156 73.421875 110.460938 C 68.75 119.28125 71.347656 124.730469 76.535156 127.84375 C 77.5625 128.460938 79.523438 129.75 82.035156 131.433594 L 16.320312 233.59375 L 16.753906 233.875 L 82.464844 131.722656 C 86.492188 134.429688 91.839844 138.082031 97.171875 141.699219 L 52.289062 246.230469 L 52.765625 246.433594 L 97.609375 141.996094 C 103.621094 146.078125 109.554688 150.070312 113.46875 152.5625 L 101.460938 254.097656 L 101.972656 254.160156 L 113.953125 152.871094 C 115.097656 153.59375 116.054688 154.175781 116.746094 154.566406 C 122.269531 157.65625 126.472656 158.105469 129.359375 155.773438 L 136.25 242.152344 L 136.769531 242.113281 L 129.847656 155.339844 C 130.167969 155.03125 130.472656 154.691406 130.757812 154.304688 C 132.429688 152.027344 150.191406 127.699219 164.632812 107.917969 C 190.835938 105.664062 198.046875 92.363281 202.363281 77.253906 C 207.550781 59.09375 198.628906 11.652344 174.34375 3.050781"/></g><g id="change1_3"><path fill="#2e3859" d="M 123.199219 461.410156 C 123.171875 461.238281 120.460938 443.535156 116.507812 419.566406 L 115.273438 412.054688 C 111.597656 389.667969 107.800781 366.523438 103.765625 350.605469 C 99.320312 333.066406 90.605469 302.925781 90.519531 302.621094 C 84.660156 284.140625 82.4375 268.292969 82.417969 268.136719 L 84.667969 266.984375 C 84.6875 267.140625 86.640625 283.925781 92.476562 302.332031 C 92.566406 302.648438 100.285156 332.804688 104.734375 350.359375 C 108.78125 366.316406 112.582031 389.488281 116.257812 411.894531 L 117.492188 419.402344 C 121.449219 443.378906 124.160156 461.085938 124.1875 461.261719 L 123.199219 461.410156"/></g><g id="change2_1"><path fill="#f8f5ea" d="M 150.535156 91.550781 L 118.230469 67.121094 C 116.351562 65.703125 113.679688 66.082031 112.273438 67.96875 L 94.101562 92.308594 C 94.027344 92.410156 93.953125 92.519531 93.886719 92.628906 L 85.417969 105.648438 C 98.339844 106.871094 116 108.734375 116 108.734375 L 118.046875 124.730469 L 122.6875 133.183594 L 151.285156 97.589844 C 152.78125 95.722656 152.441406 92.992188 150.535156 91.550781 Z M 137.761719 159.496094 L 142.691406 266.644531 C 142.691406 266.644531 44.363281 282.730469 0 233.175781 C 0 233.175781 47.53125 138.347656 75.152344 126.894531 C 75.589844 127.230469 76.046875 127.550781 76.535156 127.84375 C 77.5625 128.460938 79.523438 129.75 82.035156 131.433594 L 16.320312 233.59375 L 16.753906 233.875 L 82.464844 131.722656 C 86.492188 134.429688 91.839844 138.082031 97.171875 141.699219 L 52.289062 246.230469 L 52.765625 246.433594 L 97.609375 141.996094 C 103.621094 146.078125 109.554688 150.070312 113.46875 152.5625 L 101.460938 254.097656 L 101.972656 254.160156 L 113.953125 152.871094 C 115.097656 153.59375 116.054688 154.175781 116.746094 154.566406 C 122.269531 157.65625 126.472656 158.105469 129.359375 155.773438 L 136.25 242.152344 L 136.769531 242.113281 L 129.847656 155.339844 C 130.167969 155.03125 130.472656 154.691406 130.757812 154.304688 C 130.886719 154.132812 131.113281 153.816406 131.425781 153.394531 C 135.394531 157.011719 137.761719 159.496094 137.761719 159.496094"/></g><g id="change3_1"><path fill="#2ca9bf" d="M 141.628906 58.140625 L 142.433594 57.605469 L 142.433594 58.570312 C 142.433594 58.679688 142.496094 69.210938 147.621094 69.210938 L 153.21875 68.65625 C 157.183594 67.980469 160.648438 66.914062 160.699219 66.898438 L 160.851562 67.394531 L 159.296875 57.792969 L 140.617188 48.714844 C 140.617188 48.714844 136.816406 52.351562 129.453125 49.300781 L 130.195312 60.066406 C 136.703125 61.320312 141.574219 58.175781 141.628906 58.140625"/></g><g id="change3_2"><path fill="#2ca9bf" d="M 147.621094 70.246094 C 142.402344 70.246094 141.558594 62.195312 141.421875 59.457031 C 139.753906 60.335938 135.582031 62.09375 130.269531 61.144531 L 131.066406 72.761719 C 131.316406 76.394531 134.683594 78.996094 138.261719 78.320312 L 168.546875 72.617188 C 164.367188 69.738281 160.851562 67.394531 160.851562 67.394531 L 161.007812 67.890625 C 160.695312 67.984375 153.34375 70.246094 147.621094 70.246094"/></g><g id="change3_3"><path fill="#2ca9bf" d="M 181.144531 82.09375 C 181.429688 83.675781 181.109375 85.351562 180.09375 86.742188 C 170.164062 100.34375 140.945312 140.363281 132.777344 151.542969 L 118.167969 124.484375 L 117.5 107.734375 C 117.5 107.734375 99.191406 105.359375 86.21875 104.148438 C 82.332031 103.785156 79.613281 103.53125 77.707031 103.351562 C 87.140625 88.363281 108.179688 56.742188 116.570312 44.171875 C 117.140625 43.3125 117.894531 42.65625 118.734375 42.199219 C 106.089844 34.597656 87.058594 40.46875 76.015625 50.789062 C 64.945312 61.136719 37.359375 87.371094 36.582031 103.714844 C 35.800781 120.058594 45.402344 127.585938 57.59375 127.84375 C 62.875 127.953125 69.996094 127.871094 76.382812 127.742188 C 76.367188 127.734375 76.355469 127.726562 76.339844 127.714844 L 93.484375 128.1875 L 103.476562 145.964844 C 103.394531 145.910156 103.320312 145.859375 103.242188 145.804688 C 103.523438 146.226562 103.808594 146.644531 104.097656 147.066406 L 106.804688 151.886719 L 108.074219 152.699219 C 112.410156 158.597656 116.976562 163.96875 120.898438 166.757812 C 132.574219 175.0625 153.847656 171.171875 163.445312 155.601562 C 173.046875 140.035156 182.644531 126.285156 186.796875 106.828125 C 189.574219 93.804688 184.683594 85.902344 181.144531 82.09375"/></g><g id="change3_4"><path fill="#2ca9bf" d="M 149.523438 92.90625 L 162.496094 101.207031 L 164.398438 99.132812 L 152.289062 90.65625 L 149.523438 92.90625"/></g><g id="change3_5"><path fill="#2ca9bf" d="M 126.414062 73.707031 L 126.414062 73.964844 L 138.519531 83.117188 L 139.046875 83.042969 C 141.488281 82.691406 145.058594 81.898438 148.511719 81.132812 C 151.945312 80.367188 155.496094 79.578125 157.898438 79.234375 C 161.574219 78.710938 171.003906 76.546875 175.527344 75.488281 L 174.542969 74.652344 C 169.804688 75.753906 161.152344 77.722656 157.753906 78.210938 C 155.3125 78.558594 151.742188 79.351562 148.285156 80.117188 C 144.851562 80.882812 141.300781 81.671875 138.898438 82.015625 L 138.804688 82.027344 L 127.449219 73.441406 C 127.429688 71.476562 127.382812 68.804688 126.863281 64.648438 C 126.152344 58.960938 125.105469 48.285156 124.523438 42.210938 C 124.171875 42.019531 123.808594 41.863281 123.4375 41.746094 C 124.007812 47.707031 125.097656 58.898438 125.832031 64.777344 C 126.367188 69.058594 126.394531 71.636719 126.414062 73.707031"/></g><g id="change4_1"><path fill="#fdaf7d" d="M 103.511719 106.132812 C 103.511719 106.132812 102.78125 104.59375 102.210938 101.523438 C 101.636719 98.453125 104.8125 93.214844 104.601562 89.074219 C 104.386719 84.933594 101.042969 85.484375 101.042969 85.484375 C 101.042969 85.484375 100.941406 79.976562 97.03125 80.757812 C 93.117188 81.539062 86.863281 84.050781 87.144531 87.371094 C 87.421875 90.695312 91.222656 105.128906 91.222656 105.128906 L 103.511719 106.132812"/></g><g id="change4_2"><path fill="#fdaf7d" d="M 115.273438 412.054688 C 111.8125 390.988281 108.246094 369.25 104.476562 353.496094 C 102.828125 349.066406 102.824219 349.058594 102.824219 349.058594 C 102.824219 349.058594 102.808594 348.246094 102.777344 346.777344 C 98.148438 329.015625 90.601562 302.902344 90.519531 302.621094 C 84.660156 284.140625 82.4375 268.292969 82.417969 268.136719 L 82.921875 268.066406 C 72.691406 267.101562 61.957031 265.382812 51.429688 262.535156 C 58.21875 284.109375 73.4375 332.828125 75.84375 343.523438 C 78.957031 357.359375 83.796875 386.765625 91.753906 409.59375 C 99.710938 432.425781 103.863281 454.910156 103.863281 454.910156 L 119.429688 454.566406 C 119.429688 454.566406 118.203125 437.792969 116.328125 418.484375 L 115.273438 412.054688"/></g><g id="change4_3"><path fill="#fdaf7d" d="M 158.03125 32.730469 C 156.460938 28.644531 152.308594 28.734375 152.136719 28.734375 L 152.097656 27.699219 C 152.148438 27.691406 157.160156 27.570312 159.003906 32.355469 Z M 152.863281 38.535156 C 152.589844 39.746094 151.804688 40.601562 151.105469 40.441406 C 150.40625 40.285156 150.0625 39.175781 150.335938 37.964844 C 150.605469 36.753906 151.394531 35.898438 152.09375 36.058594 C 152.792969 36.214844 153.140625 37.324219 152.863281 38.535156 Z M 141.800781 27.628906 C 140.039062 25.71875 136.363281 27.023438 136.328125 27.035156 L 135.972656 26.0625 C 136.148438 25.996094 140.339844 24.511719 142.5625 26.925781 Z M 137.609375 32.546875 C 138.105469 31.40625 139.035156 30.714844 139.691406 30.996094 C 140.351562 31.28125 140.484375 32.4375 139.988281 33.574219 C 139.496094 34.714844 138.5625 35.410156 137.90625 35.125 C 137.25 34.839844 137.117188 33.683594 137.609375 32.546875 Z M 140.996094 43.453125 L 140.753906 44.460938 C 139.179688 44.078125 135.484375 43.050781 135.171875 41.769531 C 135.121094 41.566406 135.101562 41.164062 135.519531 40.800781 C 136.902344 39.589844 140.914062 36.578125 141.085938 36.449219 L 141.707031 37.28125 C 141.664062 37.3125 137.554688 40.398438 136.203125 41.582031 C 136.355469 41.96875 138.605469 42.871094 140.996094 43.453125 Z M 158.257812 11.871094 C 158.257812 11.871094 147.449219 22.164062 134.476562 24.238281 C 134.476562 24.238281 130.757812 32.109375 130.238281 46.117188 C 129.71875 60.128906 144.25 63.242188 150.992188 61.167969 C 157.738281 59.09375 159.8125 54.421875 163.964844 54.421875 C 168.117188 54.421875 169.675781 50.789062 169.675781 50.789062 C 169.675781 50.789062 155.144531 25.882812 158.257812 11.871094"/></g><g id="change4_4"><path fill="#fdaf7d" d="M 144.769531 108.125 C 140.875 107.867188 143.210938 104.492188 138.539062 104.492188 C 133.871094 104.492188 133.09375 107.867188 128.941406 110.203125 C 124.789062 112.535156 117.265625 110.460938 117.265625 110.460938 L 118.046875 124.730469 C 118.046875 124.730469 124.789062 123.953125 130.238281 124.472656 C 135.6875 124.988281 136.464844 127.066406 142.691406 126.285156 C 148.917969 125.507812 149.4375 120.058594 149.4375 114.871094 C 149.4375 109.683594 148.660156 108.386719 144.769531 108.125"/></g><g id="change4_5"><path fill="#fdaf7d" d="M 127.386719 330.035156 C 127.386719 330.035156 133.324219 293.082031 130.25 268.089844 C 122.707031 268.753906 112.246094 269.335938 100.3125 269.066406 C 99.910156 269.058594 99.496094 269.042969 99.089844 269.03125 C 98.464844 269.015625 97.835938 268.996094 97.203125 268.976562 C 96.761719 268.960938 96.320312 268.941406 95.878906 268.925781 C 95.269531 268.902344 94.652344 268.875 94.035156 268.847656 C 93.574219 268.824219 93.113281 268.800781 92.648438 268.777344 C 92.035156 268.742188 91.421875 268.707031 90.800781 268.671875 C 90.335938 268.644531 89.863281 268.613281 89.394531 268.582031 C 88.769531 268.539062 88.136719 268.496094 87.507812 268.449219 C 87.035156 268.414062 86.566406 268.378906 86.089844 268.34375 C 85.410156 268.285156 84.730469 268.226562 84.046875 268.164062 C 83.839844 268.148438 83.632812 268.128906 83.421875 268.109375 C 83.621094 269.492188 85.886719 284.695312 91.476562 302.332031 C 91.566406 302.648438 100.285156 332.804688 104.734375 350.359375 C 108.78125 366.316406 112.582031 389.488281 116.257812 411.894531 L 117.492188 419.402344 C 120.261719 436.175781 122.417969 449.867188 123.472656 456.652344 L 140.875 456.984375 C 140.875 456.984375 140.53125 395.066406 137.417969 368.085938 C 134.304688 341.101562 127.386719 330.035156 127.386719 330.035156"/></g><g id="change5_1"><path fill="#ffffff" d="M 115.5 411.984375 C 111.816406 389.53125 107.765625 366.261719 103.71875 350.296875 C 99.855469 335.0625 92.789062 310.363281 90.90625 303.816406 L 64.601562 303.816406 C 63.925781 303.816406 63.445312 304.472656 63.644531 305.117188 C 68.804688 321.976562 73.46875 337.660156 74.714844 343.195312 C 77.835938 357.074219 82.695312 386.5625 90.671875 409.460938 C 98.652344 432.359375 103.332031 454.910156 103.332031 454.910156 L 120.082031 454.734375 C 120.082031 454.734375 118.199219 437.738281 116.320312 418.371094 L 115.5 411.984375"/></g><g id="change5_2"><path fill="#ffffff" d="M 92.082031 304.742188 C 94.429688 312.921875 101.15625 335.585938 104.785156 349.90625 C 108.851562 365.929688 112.667969 389.199219 116.359375 411.703125 L 117.601562 419.242188 C 120.378906 436.085938 122.1875 449.839844 123.25 456.652344 L 141.417969 456.984375 C 141.417969 456.984375 142.734375 394.800781 139.609375 367.703125 C 136.480469 340.605469 128.535156 329.492188 128.535156 329.492188 C 128.535156 329.492188 130.132812 319.558594 131.246094 306.492188 C 131.324219 305.554688 130.578125 304.742188 129.636719 304.742188 L 92.082031 304.742188"/></g><g id="change5_3"><path fill="#ffffff" d="M 142.261719 51.566406 C 146.585938 51.914062 148.3125 47.242188 143.816406 47.417969 C 139.320312 47.589844 135.859375 45.515625 135.859375 45.515625 C 134.476562 47.242188 137.9375 51.222656 142.261719 51.566406"/></g></g></svg>