<?xml version="1.0" encoding="UTF-8"?><svg xmlns="http://www.w3.org/2000/svg" xmlns:xlink="http://www.w3.org/1999/xlink" contentScriptType="text/ecmascript" fill="#000000" width="219.4" zoomAndPan="magnify" contentStyleType="text/css" viewBox="0.0 -2.4 219.4 495.0" height="495" preserveAspectRatio="xMidYMid meet" version="1"><defs><clipPath id="a"><path d="M 45 15 L 219.351562 15 L 219.351562 88 L 45 88 Z M 45 15"/></clipPath><clipPath id="b"><path d="M 0 70 L 213 70 L 213 492.589844 L 0 492.589844 Z M 0 70"/></clipPath><clipPath id="c"><path d="M 20 46 L 208 46 L 208 492.589844 L 20 492.589844 Z M 20 46"/></clipPath></defs><g><g id="change1_1"><path fill="#fdaf7d" d="M 85.984375 63.089844 L 88.484375 74.089844 L 69.109375 75.464844 L 69.734375 63.089844 L 85.984375 63.089844"/></g><g id="change2_1" clip-path="url(#a)"><path fill="#fdaf7d" d="M 209.066406 87.425781 C 209.066406 87.425781 214.066406 84.257812 216.234375 78.425781 C 218.402344 72.589844 220.402344 61.589844 218.734375 60.925781 C 217.066406 60.257812 215.402344 67.089844 215.402344 67.089844 C 215.402344 67.089844 218.566406 56.589844 216.402344 56.089844 C 214.234375 55.589844 211.566406 65.425781 211.566406 65.425781 C 211.566406 65.425781 214.902344 54.589844 212.734375 53.757812 C 210.566406 52.925781 206.734375 63.089844 206.734375 63.089844 C 206.734375 63.089844 209.402344 52.925781 206.734375 52.089844 C 204.066406 51.257812 200.234375 69.757812 200.234375 69.757812 C 200.234375 69.757812 198.402344 59.425781 195.734375 61.089844 C 193.066406 62.757812 196.566406 82.425781 196.566406 82.425781 Z M 52.070312 43.757812 C 52.070312 43.757812 46.402344 42.089844 45.734375 36.257812 C 45.070312 30.425781 49.070312 28.589844 49.070312 28.589844 L 51.402344 35.425781 C 51.402344 35.425781 55.234375 31.757812 65.234375 30.425781 C 75.234375 29.089844 83.234375 15.425781 83.234375 15.425781 C 86.070312 26.589844 103.234375 32.089844 103.234375 32.089844 L 103.234375 27.257812 C 103.234375 27.257812 108.902344 28.757812 109.234375 35.257812 C 109.566406 41.757812 104.066406 41.925781 103.566406 44.257812 C 103.066406 46.589844 103.234375 47.425781 99.902344 55.425781 C 96.570312 63.425781 85.902344 67.757812 78.734375 68.089844 C 71.570312 68.425781 60.855469 64.214844 56.402344 56.425781 C 53.070312 50.589844 52.070312 43.757812 52.070312 43.757812"/></g><g id="change3_1"><path fill="#2e3859" d="M 47.476562 29.847656 C 48.289062 28.949219 49.070312 28.589844 49.070312 28.589844 L 51.402344 35.425781 C 51.402344 35.425781 55.234375 31.757812 65.234375 30.425781 C 75.234375 29.089844 83.234375 15.425781 83.234375 15.425781 C 86.070312 26.589844 103.234375 32.089844 103.234375 32.089844 L 103.234375 27.257812 C 103.234375 27.257812 105.644531 27.90625 107.414062 30.160156 L 108.609375 27.214844 C 108.609375 27.214844 99.984375 3.089844 82.609375 0.339844 C 65.234375 -2.410156 52.359375 12.089844 49.609375 18.214844 C 46.859375 24.339844 46.984375 26.714844 46.984375 26.714844 C 46.984375 26.714844 47.101562 28.011719 47.476562 29.847656 Z M 79.269531 47.214844 L 79.203125 48.214844 C 79.695312 48.246094 80.292969 48.273438 80.90625 48.273438 C 82.457031 48.273438 84.117188 48.101562 84.5 47.402344 C 84.597656 47.226562 84.710938 46.863281 84.390625 46.421875 C 83.390625 45.046875 80.488281 41.65625 80.363281 41.515625 L 79.605469 42.164062 C 79.632812 42.199219 82.484375 45.527344 83.542969 46.96875 C 83.042969 47.222656 81.152344 47.339844 79.269531 47.214844 Z M 74.628906 30.917969 C 74.578125 30.886719 69.324219 27.597656 65.832031 32.292969 L 66.636719 32.886719 C 69.5625 28.949219 73.90625 31.644531 74.089844 31.761719 Z M 90.570312 32.871094 L 91.398438 32.308594 C 88.574219 28.140625 83.21875 30.355469 83.164062 30.378906 L 83.554688 31.300781 C 83.742188 31.21875 88.210938 29.386719 90.570312 32.871094 Z M 70.402344 38.425781 C 70.402344 39.664062 70.960938 40.675781 71.652344 40.675781 C 72.34375 40.675781 72.902344 39.664062 72.902344 38.425781 C 72.902344 37.179688 72.34375 36.175781 71.652344 36.175781 C 70.960938 36.175781 70.402344 37.179688 70.402344 38.425781 Z M 85.152344 38.089844 C 85.152344 39.332031 85.710938 40.339844 86.402344 40.339844 C 87.09375 40.339844 87.652344 39.332031 87.652344 38.089844 C 87.652344 36.847656 87.09375 35.839844 86.402344 35.839844 C 85.710938 35.839844 85.152344 36.847656 85.152344 38.089844 Z M 162.425781 434.90625 L 146.128906 441.96875 C 141.308594 444.058594 135.757812 441.390625 134.378906 436.320312 C 129.179688 417.191406 117.957031 374.292969 115.761719 352.808594 C 112.890625 324.648438 112.890625 313.152344 112.890625 313.152344 L 91.050781 232.695312 C 91.050781 232.695312 84.730469 294.761719 77.832031 318.902344 C 77.832031 318.902344 77.257812 362.003906 76.109375 391.890625 C 75.417969 409.851562 73.480469 425.734375 72.046875 435.550781 C 71.226562 441.160156 65.789062 444.867188 60.265625 443.609375 L 48.285156 440.878906 C 42.097656 439.464844 37.792969 433.847656 38.050781 427.503906 C 39.097656 401.542969 41.625 336.738281 41.625 314.878906 C 41.625 287.289062 44.5 197.0625 49.097656 176.945312 C 53.695312 156.832031 118.636719 174.648438 118.636719 174.648438 C 118.636719 174.648438 139.902344 214.878906 145.074219 251.660156 C 150.246094 288.441406 150.820312 301.085938 150.820312 301.085938 C 150.820312 301.085938 156.566406 336.140625 158.292969 366.601562 C 159.460938 387.269531 165.128906 409.523438 168.652344 421.699219 C 170.199219 427.042969 167.53125 432.695312 162.425781 434.90625"/></g><g id="change4_1" clip-path="url(#b)"><path fill="#2ca9bf" d="M 191.484375 448.839844 C 177.511719 447.261719 168.417969 434.109375 166.761719 431.53125 C 165.652344 432.960938 164.191406 434.140625 162.425781 434.90625 L 146.128906 441.96875 C 144.339844 442.742188 142.449219 442.863281 140.710938 442.445312 L 140.484375 461.839844 L 207.984375 461.839844 C 207.984375 461.839844 206.984375 450.589844 191.484375 448.839844 Z M 60.265625 443.609375 L 48.285156 440.878906 C 46.679688 440.511719 45.203125 439.855469 43.898438 438.984375 C 38.761719 459.949219 17.335938 477.097656 20.632812 486.480469 C 24.890625 498.597656 43.792969 490.636719 47.960938 480.359375 C 52.125 470.082031 65.734375 459.25 65.734375 459.25 L 65.21875 443.445312 C 63.664062 443.910156 61.96875 444 60.265625 443.609375 Z M 127.984375 144.839844 C 128.734375 164.589844 125.234375 182.589844 119.484375 182.589844 C 113.734375 182.589844 49.234375 182.589844 49.234375 182.589844 C 37.734375 183.089844 35.734375 128.839844 35.734375 128.839844 C 34.484375 140.839844 25.234375 161.839844 25.234375 161.839844 L 49.734375 186.339844 L 49.984375 205.589844 C 49.984375 205.589844 28.984375 197.089844 14.484375 187.339844 C -0.015625 177.589844 -1.515625 163.089844 0.984375 152.589844 C 3.484375 142.089844 4.484375 132.839844 10.484375 114.089844 C 16.484375 95.339844 24.484375 89.339844 36.234375 83.839844 C 47.984375 78.339844 66.484375 70.339844 66.484375 70.339844 L 91.234375 71.339844 C 91.234375 71.339844 127.734375 82.089844 143.484375 92.589844 C 159.234375 103.089844 176.984375 114.089844 176.984375 114.089844 L 194.984375 79.589844 L 212.234375 87.089844 C 212.234375 87.089844 207.984375 102.339844 201.234375 121.339844 C 194.484375 140.339844 180.484375 150.589844 166.734375 144.089844 C 152.984375 137.589844 126.984375 121.339844 126.984375 121.339844 C 126.984375 121.339844 127.234375 125.089844 127.984375 144.839844"/></g><g id="change5_1" clip-path="url(#c)"><path fill="#ffffff" d="M 75.234375 55.339844 C 81.984375 56.714844 84.359375 53.714844 83.484375 52.339844 C 82.609375 50.964844 79.984375 52.964844 75.484375 51.089844 C 70.9375 49.195312 71.609375 46.714844 69.234375 46.839844 C 66.859375 46.964844 68.484375 53.964844 75.234375 55.339844 Z M 59.984375 455.839844 C 61.367188 455.839844 62.484375 453.433594 62.484375 450.464844 C 62.484375 447.496094 61.367188 445.089844 59.984375 445.089844 C 58.605469 445.089844 57.484375 447.496094 57.484375 450.464844 C 57.484375 453.433594 58.605469 455.839844 59.984375 455.839844 Z M 53.984375 466.089844 C 49.484375 469.089844 46.734375 478.839844 46.734375 478.839844 C 46.734375 478.839844 42.734375 473.339844 37.484375 472.339844 C 32.234375 471.339844 25.984375 473.589844 25.984375 473.589844 L 26.5625 470.792969 C 22.242188 477.199219 19.242188 482.53125 20.632812 486.480469 C 24.890625 498.597656 43.792969 490.636719 47.960938 480.359375 C 52.125 470.082031 65.734375 459.25 65.734375 459.25 L 65.597656 455.125 C 62.851562 458.078125 57.28125 463.894531 53.984375 466.089844 Z M 195.945312 449.699219 L 187.234375 457.339844 L 140.539062 457.339844 L 140.484375 461.839844 L 207.984375 461.839844 C 207.984375 461.839844 207.175781 452.859375 195.945312 449.699219 Z M 157.4375 450.796875 C 159.992188 450.796875 162.0625 448.726562 162.0625 446.171875 C 162.0625 443.613281 159.992188 441.546875 157.4375 441.546875 C 154.882812 441.546875 152.8125 443.613281 152.8125 446.171875 C 152.8125 448.726562 154.882812 450.796875 157.4375 450.796875 Z M 37.484375 144.339844 C 39.984375 142.089844 42.734375 139.839844 47.734375 128.339844 C 52.734375 116.839844 55.234375 94.589844 55.234375 87.339844 C 55.234375 80.089844 52.683594 73.738281 45.984375 77.089844 C 41.484375 79.339844 43.234375 85.339844 42.484375 99.339844 C 41.734375 113.339844 38.234375 117.589844 36.234375 126.589844 C 34.234375 135.589844 34.984375 146.589844 37.484375 144.339844 Z M 117.230469 82.328125 C 116.546875 79.582031 114.5625 77.347656 111.933594 76.300781 C 99.058594 71.164062 102.113281 83.300781 108.484375 103.089844 C 115.484375 124.839844 128.734375 143.339844 128.984375 135.839844 C 129.234375 128.339844 127.484375 123.339844 127.484375 123.339844 Z M 77.851562 70.800781 C 78.695312 72.296875 84.136719 81.460938 88.734375 77.089844 C 90.851562 75.078125 92.070312 73.246094 92.773438 71.804688 C 91.785156 71.503906 91.234375 71.339844 91.234375 71.339844 Z M 66.484375 70.339844 L 77.65625 70.789062 C 75.589844 76.648438 69.691406 79.292969 65.984375 75.339844 C 64.589844 73.851562 63.714844 72.675781 63.164062 71.78125 C 65.222656 70.886719 66.484375 70.339844 66.484375 70.339844"/></g></g></svg>