<?xml version="1.0" encoding="UTF-8"?><svg xmlns="http://www.w3.org/2000/svg" xmlns:xlink="http://www.w3.org/1999/xlink" contentScriptType="text/ecmascript" fill="#000000" width="305.2" zoomAndPan="magnify" contentStyleType="text/css" viewBox="0.0 -2.9 305.2 474.4" height="474.4" preserveAspectRatio="xMidYMid meet" version="1"><defs><clipPath id="a"><path d="M 182 47 L 305.179688 47 L 305.179688 471.550781 L 182 471.550781 Z M 182 47"/></clipPath></defs><g><g id="change1_1"><path fill="#fdaf7d" d="M 229.941406 51.21875 L 234.773438 72.550781 L 210.941406 76.21875 L 209.941406 51.550781 L 229.941406 51.21875"/></g><g id="change2_1"><path fill="#2ca9bf" d="M 209.359375 67.382812 L 223.859375 72.132812 L 235.109375 64.882812 C 235.109375 64.882812 242.859375 72.632812 253.609375 75.382812 C 264.359375 78.132812 272.609375 80.132812 275.359375 89.632812 C 278.109375 99.132812 285.859375 136.632812 287.859375 147.882812 C 289.859375 159.132812 281.359375 164.632812 276.609375 166.382812 C 271.859375 168.132812 252.609375 173.882812 252.609375 173.882812 C 252.609375 173.882812 207.109375 173.882812 198.609375 173.882812 C 190.109375 173.882812 186.941406 157.21875 186.941406 157.21875 C 186.941406 157.21875 176.273438 173.21875 159.359375 164.632812 C 146.242188 157.980469 108.609375 131.382812 108.609375 131.382812 L 118.359375 116.382812 L 160.109375 139.632812 C 160.109375 139.632812 163.859375 125.382812 169.859375 107.882812 C 175.859375 90.382812 179.609375 85.132812 188.109375 80.382812 C 196.609375 75.632812 206.359375 72.882812 206.359375 72.882812 L 209.359375 67.382812"/></g><g id="change3_1"><path fill="#fdaf7d" d="M 258.609375 166.550781 C 255.609375 168.21875 256.941406 174.21875 256.941406 174.21875 C 256.941406 174.21875 254.609375 176.550781 258.273438 178.21875 C 261.941406 179.882812 268.273438 176.21875 268.273438 176.21875 C 268.273438 176.21875 264.773438 178.550781 265.609375 179.882812 C 266.441406 181.21875 269.109375 179.882812 271.109375 178.21875 C 273.109375 176.550781 270.109375 169.550781 270.109375 169.550781 C 270.109375 169.550781 272.773438 160.050781 270.109375 158.550781 C 267.441406 157.050781 265.273438 161.21875 265.273438 161.21875 C 260.441406 161.21875 261.609375 164.882812 258.609375 166.550781 Z M 118.359375 116.382812 C 118.359375 116.382812 116.609375 111.882812 110.273438 112.050781 C 103.941406 112.21875 97.773438 120.050781 97.773438 120.050781 C 97.773438 120.050781 87.109375 118.382812 86.441406 121.382812 C 85.773438 124.382812 96.441406 124.382812 100.941406 125.21875 C 105.441406 126.050781 113.773438 122.882812 113.773438 122.882812 Z M 189.734375 25.507812 C 189.734375 25.507812 196.109375 25.757812 205.234375 23.882812 C 214.359375 22.007812 220.359375 18.757812 220.359375 18.757812 C 220.359375 18.757812 220.484375 23.507812 222.859375 29.132812 C 225.234375 34.757812 227.734375 35.507812 228.984375 35.257812 C 230.234375 35.007812 227.859375 24.882812 233.984375 25.007812 C 240.109375 25.132812 239.734375 41.007812 236.234375 42.257812 C 232.734375 43.507812 235.109375 58.757812 224.859375 63.507812 C 214.609375 68.257812 205.859375 66.632812 201.109375 57.132812 C 198.046875 51.570312 196.734375 48.257812 196.734375 48.257812 C 196.734375 48.257812 193.359375 47.132812 191.984375 42.007812 C 190.609375 36.882812 191.734375 35.507812 191.734375 35.507812 C 191.734375 35.507812 190.984375 29.632812 189.734375 25.507812"/></g><g id="change4_1"><path fill="#2e3859" d="M 276.273438 228.5625 C 271.335938 193.519531 252.609375 173.882812 252.609375 173.882812 L 198.609375 173.882812 C 198.609375 173.882812 184.453125 246.226562 187.953125 282.726562 C 191.453125 319.226562 204.609375 447.382812 204.609375 447.382812 L 223.734375 445.882812 C 227.320312 445.601562 230.078125 442.601562 230.050781 439 C 229.9375 424.6875 229.71875 389.707031 230.109375 369.382812 C 230.609375 343.382812 226.273438 338.90625 224.550781 322.8125 C 227.996094 304.425781 229.269531 224.789062 229.402344 225.707031 C 232.808594 249.4375 243.894531 308.929688 245.816406 326.261719 C 247.140625 338.230469 251.640625 414.195312 253.125 439.613281 C 253.394531 444.171875 257.328125 447.628906 261.886719 447.3125 L 276.40625 446.3125 C 279.917969 446.070312 282.671875 443.199219 282.757812 439.683594 C 283.09375 426.554688 283.949219 395.359375 285.109375 373.382812 C 286.609375 344.882812 281.210938 263.601562 276.273438 228.5625 Z M 0 105.746094 L 87.140625 120.8125 C 89.144531 119.617188 94.25 120.109375 96.542969 120.410156 L 0.339844 103.777344 Z M 200.304688 32.808594 C 200.132812 32.8125 196.101562 32.988281 195.183594 36.324219 L 196.148438 36.589844 C 196.871094 33.964844 200.304688 33.808594 200.335938 33.808594 Z M 215.851562 30.113281 C 211.648438 27.785156 208.28125 31.167969 208.25 31.203125 L 208.964844 31.898438 C 208.992188 31.871094 211.824219 29.027344 215.363281 30.988281 Z M 206.28125 48.96875 C 206.195312 48.929688 205.921875 48.808594 205.855469 48.164062 C 205.527344 45.054688 205.441406 41.574219 205.441406 41.539062 L 204.441406 41.5625 C 204.441406 41.597656 204.53125 45.117188 204.859375 48.269531 C 204.964844 49.273438 205.472656 49.703125 205.875 49.882812 C 206.121094 49.992188 206.394531 50.039062 206.683594 50.039062 C 208.347656 50.039062 210.535156 48.492188 210.816406 48.289062 L 210.230469 47.480469 C 209.074219 48.3125 207.082031 49.324219 206.28125 48.96875 Z M 212.722656 33.871094 C 212.011719 33.941406 211.542969 35.074219 211.679688 36.402344 C 211.8125 37.730469 212.492188 38.75 213.203125 38.679688 C 213.914062 38.605469 214.382812 37.472656 214.246094 36.144531 C 214.113281 34.816406 213.433594 33.796875 212.722656 33.871094 Z M 201.226562 41.863281 C 201.933594 41.792969 202.398438 40.65625 202.265625 39.328125 C 202.128906 38 201.441406 36.984375 200.734375 37.054688 C 200.023438 37.128906 199.558594 38.265625 199.695312 39.59375 C 199.828125 40.921875 200.515625 41.9375 201.226562 41.863281 Z M 191.5 33.882812 C 190.066406 30.367188 188.085938 25.128906 186.773438 20.132812 C 184.523438 11.550781 191.273438 13.800781 191.273438 13.800781 C 191.273438 13.800781 190.109375 8.96875 195.109375 8.21875 C 200.109375 7.46875 201.109375 5.300781 210.023438 1.21875 C 218.941406 -2.867188 228.609375 4.632812 228.609375 4.632812 C 228.609375 4.632812 240.191406 5.550781 240.359375 14.300781 C 240.433594 18.195312 239.199219 23.65625 237.8125 28.519531 C 237.054688 26.488281 235.808594 25.046875 233.984375 25.007812 C 227.859375 24.882812 230.234375 35.007812 228.984375 35.257812 C 227.734375 35.507812 225.234375 34.757812 222.859375 29.132812 C 220.484375 23.507812 220.359375 18.757812 220.359375 18.757812 C 220.359375 18.757812 214.359375 22.007812 205.234375 23.882812 C 196.109375 25.757812 189.734375 25.507812 189.734375 25.507812 C 190.574219 28.285156 191.1875 31.84375 191.5 33.882812"/></g><g id="change5_1" clip-path="url(#a)"><path fill="#f8f5ea" d="M 297.273438 459.882812 C 290.347656 455.726562 283.265625 449.015625 279.5625 445.28125 C 278.636719 445.859375 277.566406 446.230469 276.40625 446.3125 L 261.886719 447.3125 C 260.195312 447.429688 258.589844 447.023438 257.226562 446.238281 C 256.484375 453.265625 258.273438 458.882812 258.273438 458.882812 L 304.941406 470.550781 C 304.941406 470.550781 307.273438 465.882812 297.273438 459.882812 Z M 223.734375 445.882812 L 206.117188 447.265625 C 201.957031 451.125 195.84375 456.3125 189.941406 459.550781 C 179.609375 465.21875 182.609375 471.550781 182.609375 471.550781 L 229.273438 456.882812 C 229.273438 456.882812 228.4375 450.191406 227 444.746094 C 226.054688 445.378906 224.941406 445.789062 223.734375 445.882812 Z M 224.109375 95.882812 C 224.109375 95.058594 223.433594 94.382812 222.609375 94.382812 C 221.78125 94.382812 221.109375 95.058594 221.109375 95.882812 C 221.109375 96.710938 221.78125 97.382812 222.609375 97.382812 C 223.433594 97.382812 224.109375 96.710938 224.109375 95.882812 Z M 225.109375 95.882812 C 225.109375 97.261719 223.988281 98.382812 222.609375 98.382812 C 221.230469 98.382812 220.109375 97.261719 220.109375 95.882812 C 220.109375 94.503906 221.230469 93.382812 222.609375 93.382812 C 223.988281 93.382812 225.109375 94.503906 225.109375 95.882812 Z M 224.773438 122.550781 C 224.773438 121.722656 224.101562 121.050781 223.273438 121.050781 C 222.449219 121.050781 221.773438 121.722656 221.773438 122.550781 C 221.773438 123.378906 222.449219 124.050781 223.273438 124.050781 C 224.101562 124.050781 224.773438 123.378906 224.773438 122.550781 Z M 225.773438 122.550781 C 225.773438 123.929688 224.652344 125.050781 223.273438 125.050781 C 221.894531 125.050781 220.773438 123.929688 220.773438 122.550781 C 220.773438 121.171875 221.894531 120.050781 223.273438 120.050781 C 224.652344 120.050781 225.773438 121.171875 225.773438 122.550781 Z M 223.941406 150.050781 C 223.113281 150.050781 222.441406 150.722656 222.441406 151.550781 C 222.441406 152.378906 223.113281 153.050781 223.941406 153.050781 C 224.769531 153.050781 225.441406 152.378906 225.441406 151.550781 C 225.441406 150.722656 224.769531 150.050781 223.941406 150.050781 Z M 223.941406 149.050781 C 225.320312 149.050781 226.441406 150.171875 226.441406 151.550781 C 226.441406 152.929688 225.320312 154.050781 223.941406 154.050781 C 222.5625 154.050781 221.441406 152.929688 221.441406 151.550781 C 221.441406 150.171875 222.5625 149.050781 223.941406 149.050781 Z M 210.03125 53.484375 C 212.070312 53.746094 214.96875 53.878906 217.140625 50.914062 C 219.3125 47.953125 217.796875 46.113281 216.546875 47.953125 C 215.296875 49.796875 212.003906 51.488281 209.371094 51.574219 C 207.332031 51.640625 207.988281 53.21875 210.03125 53.484375 Z M 232.878906 78.855469 L 223.808594 71.445312 L 215.574219 80.511719 L 206.691406 72.511719 L 206.023438 73.253906 L 215.644531 81.921875 L 223.90625 72.820312 L 233 80.246094 L 241.652344 70.210938 L 240.894531 69.558594 Z M 187.117188 158.441406 C 186.789062 120.636719 192.367188 99.886719 192.421875 99.683594 L 191.460938 99.417969 C 191.402344 99.625 185.789062 120.488281 186.117188 158.449219 Z M 257.105469 169.601562 L 256.109375 169.664062 C 255.546875 160.875 258.863281 152.210938 261.902344 146.273438 L 261.78125 146.292969 L 256.445312 111.625 L 257.433594 111.472656 L 262.589844 144.972656 C 264.691406 141.082031 266.496094 138.644531 266.539062 138.582031 L 267.339844 139.183594 C 267.226562 139.332031 256.128906 154.304688 257.105469 169.601562"/></g></g></svg>