<?xml version="1.0" encoding="UTF-8"?><svg xmlns="http://www.w3.org/2000/svg" xmlns:xlink="http://www.w3.org/1999/xlink" contentScriptType="text/ecmascript" fill="#000000" width="386.6" zoomAndPan="magnify" contentStyleType="text/css" viewBox="0.0 -0.9 386.6 483.0" height="483" preserveAspectRatio="xMidYMid meet" version="1"><defs><clipPath id="a"><path d="M 89 13 L 386.558594 13 L 386.558594 480 L 89 480 Z M 89 13"/></clipPath><clipPath id="b"><path d="M 177 55 L 345 55 L 345 482.171875 L 177 482.171875 Z M 177 55"/></clipPath></defs><g><g id="change1_1" clip-path="url(#a)"><path fill="#fdaf7d" d="M 198.25 40.046875 C 198.25 40.046875 192.320312 40.046875 193.167969 47.546875 C 194.015625 55.046875 197.28125 55.289062 202.484375 58.679688 C 207.6875 62.066406 211.679688 70.65625 226.5625 71.261719 C 241.445312 71.867188 248.703125 57.105469 248.945312 49.964844 C 249.1875 42.828125 252.214844 41.132812 251.367188 35.566406 C 250.519531 30.003906 246.890625 30.96875 246.890625 30.96875 L 243.140625 22.984375 C 243.140625 22.984375 232.976562 23.105469 226.078125 13.425781 C 226.078125 13.425781 225.839844 30.363281 216.277344 38.230469 C 206.71875 46.09375 200.910156 47.910156 200.910156 47.910156 Z M 155.742188 148.535156 L 122.023438 138.292969 C 122.023438 138.292969 116.214844 130.789062 111.859375 131.03125 C 107.503906 131.273438 99.035156 134.179688 95.164062 135.871094 C 91.292969 137.566406 88.144531 137.082031 89.839844 139.742188 C 91.53125 142.40625 97.097656 142.164062 97.097656 142.164062 C 97.097656 142.164062 101.453125 148.214844 104.117188 150.390625 C 106.777344 152.570312 118.636719 150.875 118.636719 150.875 C 118.636719 150.875 144.046875 166.605469 158.5625 173.863281 C 173.085938 181.125 199.21875 175.316406 199.21875 175.316406 Z M 283.429688 155.472656 C 290.207031 165.394531 290.207031 168.539062 308.839844 166.363281 C 327.472656 164.183594 353.125 153.539062 353.125 153.539062 C 358.207031 155.230469 368.851562 159.101562 373.933594 156.925781 C 379.015625 154.746094 387.242188 149.664062 386.519531 147.730469 C 385.792969 145.792969 384.339844 146.761719 378.53125 149.183594 C 372.722656 151.601562 370.0625 148.699219 370.0625 148.699219 C 368.609375 145.308594 359.175781 140.46875 347.800781 140.46875 C 336.425781 140.46875 297.222656 141.4375 297.222656 141.4375 C 297.222656 141.4375 276.65625 145.550781 283.429688 155.472656 Z M 195.75 417.628906 C 195.75 417.628906 196.394531 436.988281 195.425781 447.3125 C 194.460938 457.636719 183.164062 464.414062 181.230469 469.574219 C 179.296875 474.738281 181.554688 479.253906 181.554688 479.253906 C 181.554688 479.253906 196.394531 480.867188 214.464844 456.992188 L 220.269531 406.980469 Z M 302.871094 411.175781 C 304.804688 432.148438 307.710938 444.730469 321.585938 449.25 C 335.460938 453.765625 337.394531 464.089844 337.394531 464.089844 L 293.191406 455.378906 L 283.1875 418.597656 C 283.1875 418.597656 300.933594 390.203125 302.871094 411.175781"/></g><g id="change2_1"><path fill="#fdaf7d" d="M 223.175781 80.132812 L 226.402344 88.523438 L 227.371094 80.457031 L 234.273438 74.703125 L 233.976562 70.183594 C 231.757812 70.964844 229.289062 71.371094 226.5625 71.261719 C 220.710938 71.023438 216.546875 69.550781 213.328125 67.644531 L 213.511719 74.714844 Z M 370.355469 148.292969 C 361.613281 141.980469 354.910156 143.242188 354.632812 143.296875 L 354.828125 144.277344 C 354.890625 144.261719 361.40625 143.066406 369.769531 149.101562 Z M 117.703125 142.660156 C 111.660156 142.660156 108.316406 139.648438 107.421875 138.707031 C 103.761719 140.070312 97.855469 141.996094 96.847656 140.644531 C 96.523438 140.210938 96.636719 139.628906 97.183594 138.910156 C 100.078125 135.113281 107.382812 131.804688 107.691406 131.664062 L 108.101562 132.574219 C 108.027344 132.609375 100.722656 135.921875 97.980469 139.515625 C 97.664062 139.933594 97.667969 140.089844 97.667969 140.09375 C 98.210938 140.519531 102.675781 139.425781 107.386719 137.652344 L 107.722656 137.527344 L 107.949219 137.804688 C 107.984375 137.847656 111.570312 142.097656 118.863281 141.621094 L 118.929688 142.617188 C 118.511719 142.648438 118.101562 142.660156 117.703125 142.660156"/></g><g id="change3_1" clip-path="url(#b)"><path fill="#f8f5ea" d="M 180.34375 464.492188 C 177.011719 467.558594 177.054688 472.457031 177.769531 476.238281 C 178.375 479.472656 181.113281 481.875 184.398438 482.066406 C 184.933594 482.097656 185.515625 482.128906 186.152344 482.160156 C 190.992188 482.402344 199.460938 478.527344 203.574219 473.933594 C 207.6875 469.335938 216.398438 459.898438 216.640625 456.265625 C 216.882812 452.636719 216.640625 447.554688 216.640625 447.554688 L 205.753906 453.847656 L 205.511719 449.734375 L 193.894531 448.039062 C 193.410156 452.878906 186.394531 458.929688 180.34375 464.492188 Z M 290.691406 457.234375 C 290.691406 457.234375 299.402344 459.652344 308.113281 461.347656 C 316.824219 463.042969 332.070312 468.851562 340.300781 468.125 C 348.527344 467.398438 344.894531 456.75 334.25 453.363281 C 323.601562 449.976562 313.921875 442.230469 313.921875 442.230469 L 303.757812 444.167969 L 304.484375 448.765625 L 290.207031 449.007812 Z M 225.59375 61.582031 C 221.601562 60.371094 218.699219 57.710938 219.910156 56.015625 C 221.117188 54.320312 224.003906 57.226562 230.191406 57.226562 C 235.515625 57.226562 229.589844 62.789062 225.59375 61.582031"/></g><g id="change4_1"><path fill="#2ca9bf" d="M 178.128906 191.058594 L 178.648438 185.320312 L 155.742188 148.535156 C 163.484375 147.566406 166.066406 127.5625 173.808594 108.851562 C 181.554688 90.136719 194.460938 86.910156 200.910156 83.683594 C 207.363281 80.457031 209.945312 72.714844 209.945312 72.714844 L 223.175781 80.132812 L 226.402344 88.523438 L 227.371094 80.457031 L 237.050781 72.390625 C 240.277344 77.554688 240.277344 77.554688 253.828125 79.8125 C 267.378906 82.070312 281.898438 88.847656 286.738281 102.398438 C 291.578125 115.949219 299.644531 140.46875 299.644531 140.46875 L 286.09375 172.414062 L 288.65625 181.570312 C 289.753906 185.492188 287.617188 189.59375 283.773438 190.941406 L 246.40625 204.03125 L 234.144531 193.707031 L 227.691406 204.03125 L 185.816406 200.273438 C 181.148438 199.855469 177.703125 195.726562 178.128906 191.058594"/></g><g id="change5_1"><path fill="#2e3859" d="M 286.585938 172.328125 L 277.390625 117.882812 L 276.402344 118.046875 L 285.597656 172.496094 Z M 187.132812 113.179688 L 186.136719 113.070312 L 178.152344 185.265625 L 179.144531 185.375 Z M 231.160156 142.648438 C 232.363281 142.648438 233.339844 141.671875 233.339844 140.46875 C 233.339844 139.265625 232.363281 138.292969 231.160156 138.292969 C 229.957031 138.292969 228.984375 139.265625 228.984375 140.46875 C 228.984375 141.671875 229.957031 142.648438 231.160156 142.648438 Z M 234.789062 176.769531 C 235.992188 176.769531 236.96875 175.792969 236.96875 174.589844 C 236.96875 173.386719 235.992188 172.414062 234.789062 172.414062 C 233.589844 172.414062 232.613281 173.386719 232.613281 174.589844 C 232.613281 175.792969 233.589844 176.769531 234.789062 176.769531 Z M 227.046875 108.285156 C 227.046875 109.488281 228.023438 110.464844 229.226562 110.464844 C 230.429688 110.464844 231.402344 109.488281 231.402344 108.285156 C 231.402344 107.082031 230.429688 106.109375 229.226562 106.109375 C 228.023438 106.109375 227.046875 107.082031 227.046875 108.285156 Z M 300.128906 263.398438 C 295.382812 228.980469 286.429688 200.390625 283.320312 191.097656 L 246.40625 204.03125 L 234.144531 193.707031 L 227.691406 204.03125 L 185.816406 200.273438 C 185.109375 200.210938 184.4375 200.054688 183.792969 199.832031 C 164.054688 275.574219 189.78125 430.375 189.78125 430.375 L 224.628906 431.339844 C 224.628906 431.339844 228.5 407.625 232.371094 357.292969 C 236.242188 306.960938 238.664062 263.886719 238.664062 263.886719 C 238.664062 263.886719 241.082031 267.273438 244.953125 285.179688 C 248.824219 303.085938 280.769531 425.050781 280.769531 425.050781 L 307.871094 426.019531 C 307.871094 426.019531 305.9375 305.507812 300.128906 263.398438 Z M 0 102.804688 L 97.582031 139.214844 L 99.8125 136.984375 L 1.484375 101.070312 Z M 228.609375 43.492188 C 228.585938 43.664062 228.113281 47.71875 231.042969 49.316406 C 232.390625 50.050781 232.574219 50.476562 232.566406 50.664062 C 232.550781 50.949219 232.121094 51.601562 229.390625 52.773438 L 229.785156 53.691406 C 232.425781 52.5625 233.519531 51.699219 233.566406 50.710938 C 233.613281 49.714844 232.558594 49.003906 231.519531 48.4375 C 229.195312 47.171875 229.597656 43.648438 229.601562 43.613281 Z M 239.550781 30.316406 C 234.542969 26.847656 230.71875 30.703125 230.679688 30.742188 L 231.398438 31.441406 C 231.53125 31.304688 234.683594 28.164062 238.984375 31.140625 Z M 219.789062 43.996094 C 219.789062 45.335938 220.363281 46.417969 221.078125 46.417969 C 221.789062 46.417969 222.367188 45.335938 222.367188 43.996094 C 222.367188 42.660156 221.789062 41.578125 221.078125 41.578125 C 220.363281 41.578125 219.789062 42.660156 219.789062 43.996094 Z M 236.402344 40.933594 C 236.402344 39.59375 235.824219 38.511719 235.113281 38.511719 C 234.402344 38.511719 233.824219 39.59375 233.824219 40.933594 C 233.824219 42.269531 234.402344 43.351562 235.113281 43.351562 C 235.824219 43.351562 236.402344 42.269531 236.402344 40.933594 Z M 239.007812 67.53125 C 241.355469 68.117188 244.71875 67.976562 248.707031 64.96875 C 255.820312 59.605469 257.882812 49.59375 249.972656 43.96875 C 249.480469 45.554688 249.035156 47.410156 248.945312 49.964844 C 248.785156 54.703125 245.53125 62.800781 239.007812 67.53125 Z M 188.691406 45.851562 C 189.058594 42.257812 190.835938 39.335938 192.511719 37.324219 C 191.6875 31.671875 191.949219 25.085938 193.289062 19.234375 C 195.589844 9.191406 209.988281 1.085938 218.335938 0.117188 C 226.683594 -0.851562 241.929688 4.109375 246.890625 15.359375 C 249.292969 20.8125 249.878906 26.992188 249.84375 31.925781 C 248.511719 30.546875 246.890625 30.96875 246.890625 30.96875 L 243.140625 22.984375 C 243.140625 22.984375 232.976562 23.105469 226.078125 13.425781 C 226.078125 13.425781 225.921875 24.199219 221.007812 32.550781 C 222.445312 32.820312 223.488281 33.394531 223.558594 33.433594 L 223.066406 34.304688 C 223.050781 34.296875 221.914062 33.671875 220.4375 33.476562 C 219.296875 35.238281 217.929688 36.871094 216.277344 38.230469 C 206.71875 46.09375 200.910156 47.910156 200.910156 47.910156 L 198.25 40.046875 C 198.25 40.046875 198.226562 40.046875 198.210938 40.046875 C 198.195312 40.046875 198.167969 40.046875 198.136719 40.050781 C 198.128906 40.050781 198.109375 40.050781 198.097656 40.050781 C 197.464844 40.097656 195 40.429688 193.78125 42.863281 C 193.234375 43.953125 192.933594 45.445312 193.167969 47.546875 C 194.015625 55.046875 197.28125 55.289062 202.484375 58.679688 C 205.640625 60.734375 208.359375 64.703125 213.328125 67.644531 L 213.441406 72.039062 C 208.75 70.570312 208.171875 68.839844 208.171875 68.839844 C 208.171875 68.839844 192.199219 69.082031 190.144531 63.636719 C 188.085938 58.195312 191.355469 55.167969 191.355469 55.167969 C 191.355469 55.167969 187.964844 52.992188 188.691406 45.851562"/></g></g></svg>